<svg version="1.1" id="Layer_1" xmlns="http://www.w3.org/2000/svg" xmlns:xlink="http://www.w3.org/1999/xlink" x="0px" y="0px"
	 width="100%" viewBox="0 0 2000 2000" enable-background="new 0 0 2000 2000" xml:space="preserve">
<path fill="#001F3F" opacity="1.000000" stroke="none" 
	d="
M1315.000000,2001.000000 
	C876.666687,2001.000000 438.833344,2001.000000 1.000000,2001.000000 
	C1.000000,1334.333374 1.000000,667.666687 1.000000,1.000000 
	C667.666687,1.000000 1334.333374,1.000000 2001.000000,1.000000 
	C2001.000000,667.666687 2001.000000,1334.333374 2001.000000,2001.000000 
	C1772.500000,2001.000000 1544.000000,2001.000000 1315.000000,2001.000000 
M1588.927368,1320.286743 
	C1574.889160,1295.166382 1560.888916,1270.024902 1546.800537,1244.932739 
	C1536.303467,1226.237061 1525.692139,1207.605347 1514.994385,1188.249878 
	C1512.541504,1184.341919 1509.890991,1180.542725 1507.668213,1176.508057 
	C1494.721069,1153.006836 1481.958862,1129.403442 1468.963501,1105.929077 
	C1460.452026,1090.554810 1451.652222,1075.340332 1442.853394,1059.358765 
	C1423.924805,1025.508667 1405.016846,991.646912 1386.045532,957.820679 
	C1383.217896,952.778931 1380.093628,947.903442 1376.873657,942.286865 
	C1362.320679,915.995239 1347.828491,889.669678 1333.193359,863.424011 
	C1323.232666,845.561096 1313.071655,827.809814 1302.882690,809.314453 
	C1290.627930,787.386780 1278.406372,765.440491 1266.108521,743.536987 
	C1254.551147,722.952026 1242.913818,702.412109 1231.124756,681.160706 
	C1219.845337,660.977051 1208.602661,640.772705 1197.275269,620.615967 
	C1187.586304,603.374390 1177.800171,586.187317 1167.947876,568.276306 
	C1154.149170,543.616760 1140.460205,518.894958 1126.505127,494.324249 
	C1119.575195,482.122467 1111.175659,470.985474 1100.074097,461.193085 
	C1076.762573,439.691437 1048.398071,428.866913 1017.135254,422.102783 
	C1009.622070,421.402161 1002.121582,420.389069 994.592346,420.082886 
	C985.901001,419.729401 977.158142,419.579315 968.486206,420.119934 
	C960.290710,420.630829 952.158203,422.151978 943.212036,423.115204 
	C936.055847,425.084930 928.785583,426.717407 921.766663,429.092651 
	C905.858459,434.476105 890.421265,440.943726 875.997620,450.978729 
	C866.440369,459.210632 856.148560,466.742157 847.486633,475.827576 
	C831.875488,492.202026 823.723083,513.357300 812.875427,533.597595 
	C792.050537,573.400330 771.225647,613.203064 749.991150,653.602295 
	C746.507568,660.218994 742.999390,666.822876 739.544617,673.454651 
	C725.732544,699.967896 711.937134,726.489746 697.669983,753.544128 
	C692.638245,763.107605 687.576538,772.655518 682.580627,782.237732 
	C669.765808,806.816772 656.980164,831.411072 643.735962,856.548767 
	C637.630188,868.140137 631.487915,879.712524 625.425842,891.326721 
	C610.001282,920.878113 594.612549,950.448303 578.789185,980.583313 
	C575.762817,986.254211 572.698975,991.905396 569.716797,997.599426 
	C558.344116,1019.314148 546.970093,1041.028198 535.650208,1062.770386 
	C526.073853,1081.163818 516.571594,1099.595703 506.501495,1118.446533 
	C496.174774,1138.145630 485.818512,1157.829224 475.528625,1177.547485 
	C461.714325,1204.019531 447.951263,1230.518311 433.718658,1257.555054 
	C427.896088,1268.590454 422.045258,1279.611084 416.255554,1290.663696 
	C375.645142,1368.187988 335.048553,1445.719604 294.444916,1523.247437 
	C284.775421,1541.710083 275.095856,1560.167603 265.217773,1579.015137 
	C267.514435,1579.015137 269.320770,1579.015381 271.127075,1579.015137 
	C308.933075,1579.010742 346.739105,1579.023193 384.545105,1578.994995 
	C402.029022,1578.981934 419.512878,1578.889526 437.924622,1578.978027 
	C461.948761,1578.929688 485.972870,1578.881348 510.924957,1578.976929 
	C534.615784,1578.929077 558.306641,1578.881226 582.925476,1578.976074 
	C603.949158,1578.928589 624.972778,1578.881226 646.924805,1578.975830 
	C664.615784,1578.928589 682.306824,1578.881348 700.926025,1578.975220 
	C718.283264,1578.927856 735.640503,1578.880493 753.917664,1578.973877 
	C755.911255,1578.983521 757.965149,1578.684448 759.887268,1579.059814 
	C765.961731,1580.246216 768.267029,1576.988647 769.816833,1571.782471 
	C772.643433,1562.287964 775.803833,1552.887695 779.023926,1543.516479 
	C786.584473,1521.514404 794.275574,1499.557373 801.886841,1477.572632 
	C805.422729,1467.359619 805.394165,1467.349731 816.920227,1466.819458 
	C841.276428,1466.762451 865.632690,1466.705444 890.913818,1466.820435 
	C898.882874,1466.835693 906.852051,1466.878174 914.821045,1466.860962 
	C941.878784,1466.802368 968.936462,1466.722778 996.917664,1466.825562 
	C1004.054932,1466.838745 1011.192261,1466.877197 1018.329468,1466.860474 
	C1044.882812,1466.798340 1071.436035,1466.718140 1098.909302,1466.815430 
	C1101.403320,1466.831787 1103.947510,1467.171997 1106.380859,1466.795898 
	C1111.206787,1466.050049 1113.242432,1468.301392 1114.926514,1472.587158 
	C1127.789307,1505.323975 1140.888062,1537.968140 1153.921875,1570.637695 
	C1157.392212,1579.336426 1157.405518,1579.331055 1167.926392,1578.970215 
	C1188.616699,1578.924683 1209.307129,1578.879150 1230.926514,1578.969727 
	C1254.616455,1578.924561 1278.306396,1578.879395 1302.925415,1578.970215 
	C1327.282349,1578.924805 1351.639282,1578.879395 1376.925171,1578.969360 
	C1398.615845,1578.923950 1420.306519,1578.878662 1442.926270,1578.967529 
	C1466.283203,1578.922974 1489.640259,1578.878540 1513.926636,1578.967285 
	C1538.283325,1578.922974 1562.640015,1578.878540 1587.926147,1578.967651 
	C1636.260498,1578.967651 1684.594849,1578.967651 1733.552979,1578.967651 
	C1732.398193,1576.688721 1731.709839,1575.199951 1730.911133,1573.773071 
	C1694.752808,1509.185913 1658.602295,1444.594360 1622.407471,1380.027588 
	C1611.354004,1360.309937 1600.175903,1340.662231 1588.927368,1320.286743 
z"/>
<path fill="#6998F2" opacity="1.000000" stroke="none" 
	d="
M1097.989380,1466.644775 
	C1071.436035,1466.718140 1044.882812,1466.798340 1018.329468,1466.860474 
	C1011.192261,1466.877197 1004.054932,1466.838745 996.453979,1466.292114 
	C995.990356,1390.981567 995.990356,1316.204346 996.451294,1241.333496 
	C1020.913818,1241.239624 1044.915405,1241.239624 1069.562622,1241.239624 
	C1066.085449,1231.208862 1063.014404,1222.192383 1059.836792,1213.213501 
	C1050.068848,1185.611328 1040.249756,1158.027222 1030.471558,1130.428833 
	C1025.344971,1115.959473 1020.262573,1101.474609 1015.480957,1086.829956 
	C1016.534485,1083.732910 1017.907349,1080.802979 1017.908691,1077.872437 
	C1018.006897,859.364868 1017.996704,640.857300 1017.995178,422.349762 
	C1048.398071,428.866913 1076.762573,439.691437 1099.928955,461.732117 
	C1099.189209,465.265259 1098.074585,468.259186 1098.073853,471.253418 
	C1097.991821,803.050537 1097.992920,1134.847656 1097.989380,1466.644775 
z"/>
<path fill="#6890F2" opacity="1.000000" stroke="none" 
	d="
M1098.449341,1466.730103 
	C1097.992920,1134.847656 1097.991821,803.050537 1098.073853,471.253418 
	C1098.074585,468.259186 1099.189209,465.265259 1100.115967,462.019775 
	C1111.175659,470.985474 1119.575195,482.122467 1126.505127,494.324249 
	C1140.460205,518.894958 1154.149170,543.616760 1167.797363,568.987305 
	C1167.431274,572.500732 1167.026978,575.303284 1167.026733,578.105774 
	C1166.997559,911.681702 1166.998291,1245.257690 1166.997437,1578.833618 
	C1157.405518,1579.331055 1157.392212,1579.336426 1153.921875,1570.637695 
	C1140.888062,1537.968140 1127.789307,1505.323975 1114.926514,1472.587158 
	C1113.242432,1468.301392 1111.206787,1466.050049 1106.380859,1466.795898 
	C1103.947510,1467.171997 1101.403320,1466.831787 1098.449341,1466.730103 
z"/>
<path fill="#6AACF3" opacity="1.000000" stroke="none" 
	d="
M889.988892,1466.648438 
	C865.632690,1466.705444 841.276428,1466.762451 816.458252,1466.286987 
	C815.997559,1158.379883 815.998901,851.005371 815.996887,543.630798 
	C815.996887,541.965393 816.273071,540.210205 815.842529,538.657104 
	C815.296448,536.686646 814.158569,534.880188 813.275818,533.003052 
	C823.723083,513.357300 831.875488,492.202026 847.486633,475.827576 
	C856.148560,466.742157 866.440369,459.210632 876.611328,451.188690 
	C877.816650,454.588715 878.925049,457.778564 878.926208,460.968842 
	C879.007324,684.179626 878.995911,907.390381 879.041077,1130.601196 
	C879.041687,1133.720215 879.660583,1136.839355 879.974731,1140.335205 
	C866.902405,1174.000977 853.846252,1207.290039 840.457825,1241.426392 
	C857.714783,1241.426392 873.856628,1241.426392 889.997620,1241.868286 
	C889.994141,1317.089600 889.991516,1391.869019 889.988892,1466.648438 
z"/>
<path fill="#688AF2" opacity="1.000000" stroke="none" 
	d="
M1167.461914,1578.901855 
	C1166.998291,1245.257690 1166.997559,911.681702 1167.026733,578.105774 
	C1167.026978,575.303284 1167.431274,572.500732 1167.851929,569.337158 
	C1177.800171,586.187317 1187.586304,603.374390 1197.275269,620.615967 
	C1208.602661,640.772705 1219.845337,660.977051 1230.975098,681.859497 
	C1230.550293,685.345642 1230.034546,688.132935 1230.034180,690.920288 
	C1229.996948,986.891418 1229.998291,1282.862549 1229.997437,1578.833618 
	C1209.307129,1578.879150 1188.616699,1578.924683 1167.461914,1578.901855 
z"/>
<path fill="#6884F2" opacity="1.000000" stroke="none" 
	d="
M1230.461914,1578.901611 
	C1229.998291,1282.862549 1229.996948,986.891418 1230.034180,690.920288 
	C1230.034546,688.132935 1230.550293,685.345642 1231.068604,682.205322 
	C1242.913818,702.412109 1254.551147,722.952026 1266.108521,743.536987 
	C1278.406372,765.440491 1290.627930,787.386780 1302.788818,810.047852 
	C1302.463379,813.753113 1302.029297,816.724915 1302.028931,819.696716 
	C1301.996460,1072.742554 1301.997559,1325.788330 1301.996338,1578.834229 
	C1278.306396,1578.879395 1254.616455,1578.924561 1230.461914,1578.901611 
z"/>
<path fill="#6AB2F3" opacity="1.000000" stroke="none" 
	d="
M813.075623,533.300293 
	C814.158569,534.880188 815.296448,536.686646 815.842529,538.657104 
	C816.273071,540.210205 815.996887,541.965393 815.996887,543.630798 
	C815.998901,851.005371 815.997559,1158.379883 815.996582,1466.200562 
	C805.394165,1467.349731 805.422729,1467.359619 801.886841,1477.572632 
	C794.275574,1499.557373 786.584473,1521.514404 779.023926,1543.516479 
	C775.803833,1552.887695 772.643433,1562.287964 769.816833,1571.782471 
	C768.267029,1576.988647 765.961731,1580.246216 759.887268,1579.059814 
	C757.965149,1578.684448 755.911255,1578.983521 753.458374,1578.445557 
	C752.999329,1553.808228 752.941895,1529.699341 753.015747,1505.590576 
	C753.093689,1480.151733 753.343628,1454.713379 753.430969,1429.274536 
	C753.505127,1407.685913 753.456543,1386.096680 753.459167,1364.507812 
	C753.461914,1341.241943 753.520996,1317.975708 753.445679,1294.710083 
	C753.361267,1268.623413 753.106201,1242.536987 753.014954,1216.450317 
	C752.941101,1195.344482 752.940002,1174.237915 753.015564,1153.132080 
	C753.104248,1128.375610 753.416077,1103.619873 753.432617,1078.863525 
	C753.445557,1059.415039 753.024719,1039.966187 753.035950,1020.517700 
	C753.049744,996.605042 753.433594,972.692505 753.433350,948.779907 
	C753.433167,924.848877 753.059082,900.917969 753.030945,876.986755 
	C753.006836,856.532715 753.322327,836.078430 753.334595,815.624146 
	C753.344238,799.511230 753.040039,783.398315 753.025696,767.285278 
	C753.013550,753.668030 753.265564,740.050781 753.314575,726.433228 
	C753.389832,705.506897 753.563416,684.577759 753.254944,663.656311 
	C753.203369,660.158203 755.161621,655.489502 750.400757,653.005798 
	C771.225647,613.203064 792.050537,573.400330 813.075623,533.300293 
z"/>
<path fill="#687DF1" opacity="1.000000" stroke="none" 
	d="
M1302.460938,1578.902222 
	C1301.997559,1325.788330 1301.996460,1072.742554 1302.028931,819.696716 
	C1302.029297,816.724915 1302.463379,813.753113 1302.847656,810.394958 
	C1313.071655,827.809814 1323.232666,845.561096 1333.193359,863.424011 
	C1347.828491,889.669678 1362.320679,915.995239 1376.777832,942.978699 
	C1376.454590,946.303284 1376.028687,948.935974 1376.028320,951.568726 
	C1375.996338,1160.657104 1375.997437,1369.745605 1375.996216,1578.833984 
	C1351.639282,1578.879395 1327.282349,1578.924805 1302.460938,1578.902222 
z"/>
<path fill="#6AB7F3" opacity="1.000000" stroke="none" 
	d="
M750.195923,653.304077 
	C755.161621,655.489502 753.203369,660.158203 753.254944,663.656311 
	C753.563416,684.577759 753.389832,705.506897 753.314575,726.433228 
	C753.265564,740.050781 753.013550,753.668030 753.025696,767.285278 
	C753.040039,783.398315 753.344238,799.511230 753.334595,815.624146 
	C753.322327,836.078430 753.006836,856.532715 753.030945,876.986755 
	C753.059082,900.917969 753.433167,924.848877 753.433350,948.779907 
	C753.433594,972.692505 753.049744,996.605042 753.035950,1020.517700 
	C753.024719,1039.966187 753.445557,1059.415039 753.432617,1078.863525 
	C753.416077,1103.619873 753.104248,1128.375610 753.015564,1153.132080 
	C752.940002,1174.237915 752.941101,1195.344482 753.014954,1216.450317 
	C753.106201,1242.536987 753.361267,1268.623413 753.445679,1294.710083 
	C753.520996,1317.975708 753.461914,1341.241943 753.459167,1364.507812 
	C753.456543,1386.096680 753.505127,1407.685913 753.430969,1429.274536 
	C753.343628,1454.713379 753.093689,1480.151733 753.015747,1505.590576 
	C752.941895,1529.699341 752.999329,1553.808228 752.998413,1578.375244 
	C735.640503,1578.880493 718.283264,1578.927856 700.462524,1578.446533 
	C699.999329,1305.721313 699.999695,1033.524902 699.998901,761.328552 
	C699.998901,759.829407 700.219055,758.278809 699.906433,756.846069 
	C699.613159,755.502075 698.748657,754.282715 698.135620,753.008484 
	C711.937134,726.489746 725.732544,699.967896 739.544617,673.454651 
	C742.999390,666.822876 746.507568,660.218994 750.195923,653.304077 
z"/>
<path fill="#6CC2F4" opacity="1.000000" stroke="none" 
	d="
M645.996460,1578.833862 
	C624.972778,1578.881226 603.949158,1578.928589 582.462158,1578.446655 
	C581.999207,1382.474731 581.999878,1187.032104 581.996765,991.589539 
	C581.996704,989.590759 582.288574,987.508423 581.826111,985.616211 
	C581.345886,983.651978 580.113159,981.871704 579.209534,980.010986 
	C594.612549,950.448303 610.001282,920.878113 625.425842,891.326721 
	C631.487915,879.712524 637.630188,868.140137 644.265625,856.492493 
	C645.196838,858.826172 645.949646,861.216125 645.950134,863.606140 
	C646.002380,1102.015381 645.997620,1340.424561 645.996460,1578.833862 
z"/>
<path fill="#699FF3" opacity="1.000000" stroke="none" 
	d="
M1017.565186,422.226257 
	C1017.996704,640.857300 1018.006897,859.364868 1017.908691,1077.872437 
	C1017.907349,1080.802979 1016.534485,1083.732910 1015.363037,1086.473877 
	C1009.256531,1070.355957 1003.575073,1054.432373 997.923645,1038.497925 
	C986.297729,1005.718445 974.691223,972.932129 963.060608,940.154358 
	C962.551758,938.720154 961.883301,937.342651 961.035095,935.338196 
	C955.810364,948.150757 950.943726,960.085144 945.868530,971.660522 
	C945.440063,968.667114 945.027893,966.032776 945.027466,963.398376 
	C944.997131,786.804382 945.005676,610.210327 944.958191,433.616333 
	C944.957275,430.153717 944.331970,426.691284 943.997986,423.228760 
	C952.158203,422.151978 960.290710,420.630829 968.486206,420.119934 
	C977.158142,419.579315 985.901001,419.729401 994.592346,420.082886 
	C1002.121582,420.389069 1009.622070,421.402161 1017.565186,422.226257 
z"/>
<path fill="#6ABCF4" opacity="1.000000" stroke="none" 
	d="
M646.460632,1578.904785 
	C645.997620,1340.424561 646.002380,1102.015381 645.950134,863.606140 
	C645.949646,861.216125 645.196838,858.826172 644.489075,856.217773 
	C656.980164,831.411072 669.765808,806.816772 682.580627,782.237732 
	C687.576538,772.655518 692.638245,763.107605 697.902832,753.276306 
	C698.748657,754.282715 699.613159,755.502075 699.906433,756.846069 
	C700.219055,758.278809 699.998901,759.829407 699.998901,761.328552 
	C699.999695,1033.524902 699.999329,1305.721313 699.998413,1578.375854 
	C682.306824,1578.881348 664.615784,1578.928589 646.460632,1578.904785 
z"/>
<path fill="#6AA6F3" opacity="1.000000" stroke="none" 
	d="
M943.604980,423.171997 
	C944.331970,426.691284 944.957275,430.153717 944.958191,433.616333 
	C945.005676,610.210327 944.997131,786.804382 945.027466,963.398376 
	C945.027893,966.032776 945.440063,968.667114 945.840210,972.035034 
	C931.521301,1009.706665 917.059998,1046.659546 902.507751,1083.576538 
	C895.086365,1102.403687 887.501770,1121.166504 879.990845,1139.958374 
	C879.660583,1136.839355 879.041687,1133.720215 879.041077,1130.601196 
	C878.995911,907.390381 879.007324,684.179626 878.926208,460.968842 
	C878.925049,457.778564 877.816650,454.588715 876.940002,451.110718 
	C890.421265,440.943726 905.858459,434.476105 921.766663,429.092651 
	C928.785583,426.717407 936.055847,425.084930 943.604980,423.171997 
z"/>
<path fill="#6CC8F4" opacity="1.000000" stroke="none" 
	d="
M578.999390,980.297119 
	C580.113159,981.871704 581.345886,983.651978 581.826111,985.616211 
	C582.288574,987.508423 581.996704,989.590759 581.996765,991.589539 
	C581.999878,1187.032104 581.999207,1382.474731 581.998108,1578.375244 
	C558.306641,1578.881226 534.615784,1578.929077 510.461548,1578.446899 
	C509.998718,1428.266357 509.999664,1278.615845 509.996185,1128.965332 
	C509.996155,1127.132935 510.297058,1125.199341 509.814514,1123.495117 
	C509.266602,1121.559814 507.994080,1119.829834 507.036530,1118.010620 
	C516.571594,1099.595703 526.073853,1081.163818 535.650208,1062.770386 
	C546.970093,1041.028198 558.344116,1019.314148 569.716797,997.599426 
	C572.698975,991.905396 575.762817,986.254211 578.999390,980.297119 
z"/>
<path fill="#6776F1" opacity="1.000000" stroke="none" 
	d="
M1376.460693,1578.901611 
	C1375.997437,1369.745605 1375.996338,1160.657104 1376.028320,951.568726 
	C1376.028687,948.935974 1376.454590,946.303284 1376.894287,943.310791 
	C1380.093628,947.903442 1383.217896,952.778931 1386.045532,957.820679 
	C1405.016846,991.646912 1423.924805,1025.508667 1442.766113,1060.089844 
	C1442.452637,1063.625854 1442.028809,1066.431030 1442.028320,1069.236084 
	C1441.995850,1239.101807 1441.998047,1408.967651 1441.997192,1578.833252 
	C1420.306519,1578.878662 1398.615845,1578.923950 1376.460693,1578.901611 
z"/>
<path fill="#6670F1" opacity="1.000000" stroke="none" 
	d="
M1442.461670,1578.900391 
	C1441.998047,1408.967651 1441.995850,1239.101807 1442.028320,1069.236084 
	C1442.028809,1066.431030 1442.452637,1063.625854 1442.830322,1060.437500 
	C1451.652222,1075.340332 1460.452026,1090.554810 1468.963501,1105.929077 
	C1481.958862,1129.403442 1494.721069,1153.006836 1507.668213,1176.508057 
	C1509.890991,1180.542725 1512.541504,1184.341919 1514.800781,1188.886841 
	C1514.071289,1192.568481 1513.069092,1195.612915 1513.067261,1198.657837 
	C1512.987915,1325.383179 1512.998169,1452.108643 1512.997192,1578.833984 
	C1489.640259,1578.878540 1466.283203,1578.922974 1442.461670,1578.900391 
z"/>
<path fill="#6DCFF4" opacity="1.000000" stroke="none" 
	d="
M506.769012,1118.228516 
	C507.994080,1119.829834 509.266602,1121.559814 509.814514,1123.495117 
	C510.297058,1125.199341 509.996155,1127.132935 509.996185,1128.965332 
	C509.999664,1278.615845 509.998718,1428.266357 509.997559,1578.375000 
	C485.972870,1578.881348 461.948761,1578.929688 437.461304,1578.447510 
	C436.998657,1473.850342 436.999481,1369.783813 436.998291,1265.717163 
	C436.998260,1264.218750 437.327423,1262.598999 436.866333,1261.254028 
	C436.337250,1259.710693 435.097321,1258.411133 434.166199,1257.005615 
	C447.951263,1230.518311 461.714325,1204.019531 475.528625,1177.547485 
	C485.818512,1157.829224 496.174774,1138.145630 506.769012,1118.228516 
z"/>
<path fill="#6DD6F5" opacity="1.000000" stroke="none" 
	d="
M433.942413,1257.280273 
	C435.097321,1258.411133 436.337250,1259.710693 436.866333,1261.254028 
	C437.327423,1262.598999 436.998260,1264.218750 436.998291,1265.717163 
	C436.999481,1369.783813 436.998657,1473.850342 436.997375,1578.375000 
	C419.512878,1578.889526 402.029022,1578.981934 384.545105,1578.994995 
	C346.739105,1579.023193 308.933075,1579.010742 271.127075,1579.015137 
	C269.320770,1579.015381 267.514435,1579.015137 265.217773,1579.015137 
	C275.095856,1560.167603 284.775421,1541.710083 294.444916,1523.247437 
	C335.048553,1445.719604 375.645142,1368.187988 416.255554,1290.663696 
	C422.045258,1279.611084 427.896088,1268.590454 433.942413,1257.280273 
z"/>
<path fill="#6569F1" opacity="1.000000" stroke="none" 
	d="
M1513.461914,1578.900635 
	C1512.998169,1452.108643 1512.987915,1325.383179 1513.067261,1198.657837 
	C1513.069092,1195.612915 1514.071289,1192.568481 1514.869385,1189.234375 
	C1525.692139,1207.605347 1536.303467,1226.237061 1546.800537,1244.932739 
	C1560.888916,1270.024902 1574.889160,1295.166382 1588.738037,1320.925903 
	C1588.032349,1324.448853 1587.068115,1327.332275 1587.065308,1330.216675 
	C1586.983398,1413.089111 1586.997803,1495.961670 1586.996704,1578.834229 
	C1562.640015,1578.878540 1538.283325,1578.922974 1513.461914,1578.900635 
z"/>
<path fill="#6AA6F3" opacity="1.000000" stroke="none" 
	d="
M890.451355,1466.734375 
	C889.991516,1391.869019 889.994141,1317.089600 890.458374,1241.777222 
	C904.200928,1241.227539 917.481934,1241.174072 930.762817,1241.202637 
	C952.505371,1241.249390 974.247864,1241.349609 995.990356,1241.427246 
	C995.990356,1316.204346 995.990356,1390.981567 995.992249,1466.204956 
	C968.936462,1466.722778 941.878784,1466.802368 914.821045,1466.860962 
	C906.852051,1466.878174 898.882874,1466.835693 890.451355,1466.734375 
z"/>
<path fill="#6562F0" opacity="1.000000" stroke="none" 
	d="
M1587.461426,1578.900879 
	C1586.997803,1495.961670 1586.983398,1413.089111 1587.065308,1330.216675 
	C1587.068115,1327.332275 1588.032349,1324.448853 1588.801758,1321.273682 
	C1600.175903,1340.662231 1611.354004,1360.309937 1622.407471,1380.027588 
	C1658.602295,1444.594360 1694.752808,1509.185913 1730.911133,1573.773071 
	C1731.709839,1575.199951 1732.398193,1576.688721 1733.552979,1578.967651 
	C1684.594849,1578.967651 1636.260498,1578.967651 1587.461426,1578.900879 
z"/>
<path fill="#001F3F" opacity="1.000000" stroke="none" 
	d="
M996.451294,1241.333496 
	C974.247864,1241.349609 952.505371,1241.249390 930.762817,1241.202637 
	C917.481934,1241.174072 904.200928,1241.227539 890.459229,1241.335327 
	C873.856628,1241.426392 857.714783,1241.426392 840.457825,1241.426392 
	C853.846252,1207.290039 866.902405,1174.000977 879.974731,1140.335205 
	C887.501770,1121.166504 895.086365,1102.403687 902.507751,1083.576538 
	C917.059998,1046.659546 931.521301,1009.706665 946.048645,972.394043 
	C950.943726,960.085144 955.810364,948.150757 961.035095,935.338196 
	C961.883301,937.342651 962.551758,938.720154 963.060608,940.154358 
	C974.691223,972.932129 986.297729,1005.718445 997.923645,1038.497925 
	C1003.575073,1054.432373 1009.256531,1070.355957 1015.042236,1086.640625 
	C1020.262573,1101.474609 1025.344971,1115.959473 1030.471558,1130.428833 
	C1040.249756,1158.027222 1050.068848,1185.611328 1059.836792,1213.213501 
	C1063.014404,1222.192383 1066.085449,1231.208862 1069.562622,1241.239624 
	C1044.915405,1241.239624 1020.913818,1241.239624 996.451294,1241.333496 
z"/>
</svg>